<mxfile host="drawio-plugin" agent="Mozilla/5.0 (Macintosh; Intel Mac OS X 10_15_7) AppleWebKit/537.36 (KHTML, like Gecko) Chrome/122.0.0.0 Safari/537.36" modified="2024-11-14T12:06:02.045Z" etag="vaGOrQwXMScm7l9yaKet" version="22.1.22" type="embed">
  <diagram name="Page-1" id="78ao0zfcqq2hJEpeUlAb">
    <mxGraphModel dx="522" dy="351" grid="1" gridSize="10" guides="1" tooltips="1" connect="1" arrows="1" fold="1" page="0" pageScale="1" pageWidth="827" pageHeight="1169" math="0" shadow="0">
      <root>
        <mxCell id="0" />
        <mxCell id="1" parent="0" />
        <mxCell id="oiT4Quwt-Jy-5x4-fu4d-1" value="auth service" style="rounded=1;whiteSpace=wrap;html=1;arcSize=18;" parent="1" vertex="1">
          <mxGeometry x="160" y="350" width="120" height="60" as="geometry" />
        </mxCell>
        <mxCell id="9" style="edgeStyle=orthogonalEdgeStyle;rounded=0;orthogonalLoop=1;jettySize=auto;html=1;entryX=0.25;entryY=1;entryDx=0;entryDy=0;" parent="1" source="oiT4Quwt-Jy-5x4-fu4d-2" target="oiT4Quwt-Jy-5x4-fu4d-5" edge="1">
          <mxGeometry relative="1" as="geometry" />
        </mxCell>
        <mxCell id="oiT4Quwt-Jy-5x4-fu4d-2" value="notify service" style="rounded=1;whiteSpace=wrap;html=1;arcSize=18;" parent="1" vertex="1">
          <mxGeometry x="630" y="350" width="120" height="60" as="geometry" />
        </mxCell>
        <mxCell id="oiT4Quwt-Jy-5x4-fu4d-7" value="" style="group" parent="1" vertex="1" connectable="0">
          <mxGeometry x="360" y="260" width="170" height="40" as="geometry" />
        </mxCell>
        <mxCell id="oiT4Quwt-Jy-5x4-fu4d-3" value="" style="shape=dataStorage;whiteSpace=wrap;html=1;fixedSize=1;" parent="oiT4Quwt-Jy-5x4-fu4d-7" vertex="1">
          <mxGeometry width="50" height="40" as="geometry" />
        </mxCell>
        <mxCell id="oiT4Quwt-Jy-5x4-fu4d-4" value="" style="shape=dataStorage;whiteSpace=wrap;html=1;fixedSize=1;" parent="oiT4Quwt-Jy-5x4-fu4d-7" vertex="1">
          <mxGeometry x="40" width="50" height="40" as="geometry" />
        </mxCell>
        <mxCell id="oiT4Quwt-Jy-5x4-fu4d-5" value="" style="shape=dataStorage;whiteSpace=wrap;html=1;fixedSize=1;" parent="oiT4Quwt-Jy-5x4-fu4d-7" vertex="1">
          <mxGeometry x="80" width="50" height="40" as="geometry" />
        </mxCell>
        <mxCell id="oiT4Quwt-Jy-5x4-fu4d-6" value="" style="shape=dataStorage;whiteSpace=wrap;html=1;fixedSize=1;" parent="oiT4Quwt-Jy-5x4-fu4d-7" vertex="1">
          <mxGeometry x="120" width="50" height="40" as="geometry" />
        </mxCell>
        <mxCell id="oiT4Quwt-Jy-5x4-fu4d-8" value="" style="group;rotation=-180;" parent="1" vertex="1" connectable="0">
          <mxGeometry x="360" y="450" width="170" height="40" as="geometry" />
        </mxCell>
        <mxCell id="oiT4Quwt-Jy-5x4-fu4d-9" value="" style="shape=dataStorage;whiteSpace=wrap;html=1;fixedSize=1;rotation=-180;" parent="oiT4Quwt-Jy-5x4-fu4d-8" vertex="1">
          <mxGeometry x="120" width="50" height="40" as="geometry" />
        </mxCell>
        <mxCell id="oiT4Quwt-Jy-5x4-fu4d-10" value="" style="shape=dataStorage;whiteSpace=wrap;html=1;fixedSize=1;rotation=-180;" parent="oiT4Quwt-Jy-5x4-fu4d-8" vertex="1">
          <mxGeometry x="80" width="50" height="40" as="geometry" />
        </mxCell>
        <mxCell id="oiT4Quwt-Jy-5x4-fu4d-11" value="" style="shape=dataStorage;whiteSpace=wrap;html=1;fixedSize=1;rotation=-180;" parent="oiT4Quwt-Jy-5x4-fu4d-8" vertex="1">
          <mxGeometry x="40" width="50" height="40" as="geometry" />
        </mxCell>
        <mxCell id="oiT4Quwt-Jy-5x4-fu4d-12" value="" style="shape=dataStorage;whiteSpace=wrap;html=1;fixedSize=1;rotation=-180;" parent="oiT4Quwt-Jy-5x4-fu4d-8" vertex="1">
          <mxGeometry width="50" height="40" as="geometry" />
        </mxCell>
        <mxCell id="oiT4Quwt-Jy-5x4-fu4d-15" style="edgeStyle=orthogonalEdgeStyle;rounded=0;orthogonalLoop=1;jettySize=auto;html=1;entryX=0.5;entryY=1;entryDx=0;entryDy=0;" parent="1" source="oiT4Quwt-Jy-5x4-fu4d-9" target="oiT4Quwt-Jy-5x4-fu4d-2" edge="1">
          <mxGeometry relative="1" as="geometry" />
        </mxCell>
        <mxCell id="oiT4Quwt-Jy-5x4-fu4d-16" value="auth_notify_queue" style="text;html=1;align=center;verticalAlign=middle;whiteSpace=wrap;rounded=0;" parent="1" vertex="1">
          <mxGeometry x="380" y="500" width="110" height="30" as="geometry" />
        </mxCell>
        <mxCell id="oiT4Quwt-Jy-5x4-fu4d-17" value="notify_auth_queue" style="text;html=1;align=center;verticalAlign=middle;whiteSpace=wrap;rounded=0;" parent="1" vertex="1">
          <mxGeometry x="390" y="180" width="110" height="30" as="geometry" />
        </mxCell>
        <mxCell id="oiT4Quwt-Jy-5x4-fu4d-19" style="edgeStyle=orthogonalEdgeStyle;rounded=0;orthogonalLoop=1;jettySize=auto;html=1;entryX=0.5;entryY=0;entryDx=0;entryDy=0;" parent="1" source="oiT4Quwt-Jy-5x4-fu4d-3" target="oiT4Quwt-Jy-5x4-fu4d-1" edge="1">
          <mxGeometry relative="1" as="geometry" />
        </mxCell>
        <mxCell id="oiT4Quwt-Jy-5x4-fu4d-26" value="&lt;div&gt;&lt;span style=&quot;font-family: Helvetica; font-size: 12px; font-style: normal; font-variant-ligatures: normal; font-variant-caps: normal; font-weight: 400; letter-spacing: normal; orphans: 2; text-align: left; text-indent: 0px; text-transform: none; widows: 2; word-spacing: 0px; -webkit-text-stroke-width: 0px; white-space: normal; text-decoration-thickness: initial; text-decoration-style: initial; text-decoration-color: initial; float: none; display: inline !important;&quot;&gt;a-&amp;gt;n sign_up_confirm_message ошибка или сообщение об успешной регистрации (проверка кода) -&amp;nbsp;&lt;/span&gt;&lt;/div&gt;&lt;div&gt;&lt;span style=&quot;font-family: Helvetica; font-size: 12px; font-style: normal; font-variant-ligatures: normal; font-variant-caps: normal; font-weight: 400; letter-spacing: normal; orphans: 2; text-align: left; text-indent: 0px; text-transform: none; widows: 2; word-spacing: 0px; -webkit-text-stroke-width: 0px; white-space: normal; text-decoration-thickness: initial; text-decoration-style: initial; text-decoration-color: initial; float: none; display: inline !important;&quot;&gt;a-&amp;gt;n sign_in_code (отправка в очередь для отправки кода юзеру)&lt;/span&gt;&lt;/div&gt;" style="text;whiteSpace=wrap;html=1;labelBackgroundColor=none;fontColor=#000000;" parent="1" vertex="1">
          <mxGeometry x="220" y="530" width="520" height="60" as="geometry" />
        </mxCell>
        <mxCell id="oiT4Quwt-Jy-5x4-fu4d-27" value="&lt;div&gt;&lt;span style=&quot;text-align: left; text-wrap: wrap;&quot;&gt;&lt;br&gt;&lt;/span&gt;&lt;/div&gt;" style="text;html=1;align=center;verticalAlign=middle;resizable=0;points=[];autosize=1;strokeColor=none;fillColor=none;" parent="1" vertex="1">
          <mxGeometry x="655" y="585" width="20" height="30" as="geometry" />
        </mxCell>
        <mxCell id="oiT4Quwt-Jy-5x4-fu4d-29" value="&lt;meta charset=&quot;utf-8&quot;&gt;&lt;span style=&quot;forced-color-adjust: none; border-color: rgb(0, 0, 0); font-family: Helvetica; font-size: 12px; font-style: normal; font-variant-ligatures: normal; font-variant-caps: normal; font-weight: 400; letter-spacing: normal; orphans: 2; text-align: left; text-indent: 0px; text-transform: none; widows: 2; word-spacing: 0px; -webkit-text-stroke-width: 0px; white-space: normal; text-decoration-thickness: initial; text-decoration-style: initial; text-decoration-color: initial; float: none; display: inline !important;&quot;&gt;n-&amp;gt;a sign_up_confirm_code (юзер присылает код в телеграм для окончания регистрации)&lt;/span&gt;&lt;br class=&quot;Apple-interchange-newline&quot;&gt;" style="text;html=1;align=center;verticalAlign=middle;whiteSpace=wrap;rounded=0;fontColor=default;labelBackgroundColor=none;" parent="1" vertex="1">
          <mxGeometry x="200" y="210" width="560" height="30" as="geometry" />
        </mxCell>
        <mxCell id="10" style="edgeStyle=orthogonalEdgeStyle;rounded=0;orthogonalLoop=1;jettySize=auto;html=1;entryX=0.339;entryY=0.975;entryDx=0;entryDy=0;entryPerimeter=0;" parent="1" source="oiT4Quwt-Jy-5x4-fu4d-1" target="oiT4Quwt-Jy-5x4-fu4d-11" edge="1">
          <mxGeometry relative="1" as="geometry" />
        </mxCell>
        <mxCell id="14" value="" style="edgeStyle=orthogonalEdgeStyle;rounded=0;orthogonalLoop=1;jettySize=auto;html=1;" parent="1" source="12" target="13" edge="1">
          <mxGeometry relative="1" as="geometry" />
        </mxCell>
        <mxCell id="12" value="&lt;h1&gt;pprof routes&lt;/h1&gt;&lt;div style=&quot;color: rgb(188, 190, 196);&quot;&gt;&lt;pre style=&quot;font-family: &amp;quot;JetBrains Mono&amp;quot;, monospace; font-size: 9pt;&quot;&gt;mux.Handle(&lt;span style=&quot;color: rgb(106, 171, 115);&quot;&gt;&quot;/debug/pprof/&quot;&lt;/span&gt;, &lt;span style=&quot;color: rgb(175, 191, 126);&quot;&gt;http&lt;/span&gt;.&lt;span style=&quot;color: rgb(111, 175, 189);&quot;&gt;HandlerFunc&lt;/span&gt;(&lt;span style=&quot;color: rgb(175, 191, 126);&quot;&gt;pprof&lt;/span&gt;.&lt;span style=&quot;color: rgb(86, 168, 245);&quot;&gt;Index&lt;/span&gt;))&lt;br&gt;mux.&lt;span style=&quot;color: rgb(176, 157, 121);&quot;&gt;Handle&lt;/span&gt;(&lt;span style=&quot;color: rgb(106, 171, 115);&quot;&gt;&quot;/debug/pprof/cmdline&quot;&lt;/span&gt;, &lt;span style=&quot;color: rgb(175, 191, 126);&quot;&gt;http&lt;/span&gt;.&lt;span style=&quot;color: rgb(111, 175, 189);&quot;&gt;HandlerFunc&lt;/span&gt;(&lt;span style=&quot;color: rgb(175, 191, 126);&quot;&gt;pprof&lt;/span&gt;.&lt;span style=&quot;color: rgb(86, 168, 245);&quot;&gt;Cmdline&lt;/span&gt;))&lt;br&gt;mux.&lt;span style=&quot;color: rgb(176, 157, 121);&quot;&gt;Handle&lt;/span&gt;(&lt;span style=&quot;color: rgb(106, 171, 115);&quot;&gt;&quot;/debug/pprof/profile&quot;&lt;/span&gt;, &lt;span style=&quot;color: rgb(175, 191, 126);&quot;&gt;http&lt;/span&gt;.&lt;span style=&quot;color: rgb(111, 175, 189);&quot;&gt;HandlerFunc&lt;/span&gt;(&lt;span style=&quot;color: rgb(175, 191, 126);&quot;&gt;pprof&lt;/span&gt;.&lt;span style=&quot;color: rgb(86, 168, 245);&quot;&gt;Profile&lt;/span&gt;))&lt;br&gt;mux.&lt;span style=&quot;color: rgb(176, 157, 121);&quot;&gt;Handle&lt;/span&gt;(&lt;span style=&quot;color: rgb(106, 171, 115);&quot;&gt;&quot;/handle/pprof/symbol&quot;&lt;/span&gt;, &lt;span style=&quot;color: rgb(175, 191, 126);&quot;&gt;http&lt;/span&gt;.&lt;span style=&quot;color: rgb(111, 175, 189);&quot;&gt;HandlerFunc&lt;/span&gt;(&lt;span style=&quot;color: rgb(175, 191, 126);&quot;&gt;pprof&lt;/span&gt;.&lt;span style=&quot;color: rgb(86, 168, 245);&quot;&gt;Symbol&lt;/span&gt;))&lt;br&gt;mux.&lt;span style=&quot;color: rgb(176, 157, 121);&quot;&gt;Handle&lt;/span&gt;(&lt;span style=&quot;color: rgb(106, 171, 115);&quot;&gt;&quot;/debug/pprof/trace&quot;&lt;/span&gt;, &lt;span style=&quot;color: rgb(175, 191, 126);&quot;&gt;http&lt;/span&gt;.&lt;span style=&quot;color: rgb(111, 175, 189);&quot;&gt;HandlerFunc&lt;/span&gt;(&lt;span style=&quot;color: rgb(175, 191, 126);&quot;&gt;pprof&lt;/span&gt;.&lt;span style=&quot;color: rgb(86, 168, 245);&quot;&gt;Trace&lt;/span&gt;))&lt;br&gt;mux.&lt;span style=&quot;color: rgb(176, 157, 121);&quot;&gt;Handle&lt;/span&gt;(&lt;span style=&quot;color: rgb(106, 171, 115);&quot;&gt;&quot;/debug/pprof/block&quot;&lt;/span&gt;, &lt;span style=&quot;color: rgb(175, 191, 126);&quot;&gt;pprof&lt;/span&gt;.&lt;span style=&quot;color: rgb(176, 157, 121);&quot;&gt;Handler&lt;/span&gt;(&lt;span style=&quot;color: rgb(106, 171, 115);&quot;&gt;&quot;block&quot;&lt;/span&gt;))&lt;br&gt;mux.&lt;span style=&quot;color: rgb(176, 157, 121);&quot;&gt;Handle&lt;/span&gt;(&lt;span style=&quot;color: rgb(106, 171, 115);&quot;&gt;&quot;/debug/pprof/heap&quot;&lt;/span&gt;, &lt;span style=&quot;color: rgb(175, 191, 126);&quot;&gt;pprof&lt;/span&gt;.&lt;span style=&quot;color: rgb(176, 157, 121);&quot;&gt;Handler&lt;/span&gt;(&lt;span style=&quot;color: rgb(106, 171, 115);&quot;&gt;&quot;heap&quot;&lt;/span&gt;))&lt;br&gt;mux.&lt;span style=&quot;color: rgb(176, 157, 121);&quot;&gt;Handle&lt;/span&gt;(&lt;span style=&quot;color: rgb(106, 171, 115);&quot;&gt;&quot;/debug/pprof/allocs&quot;&lt;/span&gt;, &lt;span style=&quot;color: rgb(175, 191, 126);&quot;&gt;pprof&lt;/span&gt;.&lt;span style=&quot;color: rgb(176, 157, 121);&quot;&gt;Handler&lt;/span&gt;(&lt;span style=&quot;color: rgb(106, 171, 115);&quot;&gt;&quot;allocs&quot;&lt;/span&gt;))&lt;br&gt;mux.&lt;span style=&quot;color: rgb(176, 157, 121);&quot;&gt;Handle&lt;/span&gt;(&lt;span style=&quot;color: rgb(106, 171, 115);&quot;&gt;&quot;/debug/pprof/goroutine&quot;&lt;/span&gt;, &lt;span style=&quot;color: rgb(175, 191, 126);&quot;&gt;pprof&lt;/span&gt;.&lt;span style=&quot;color: rgb(176, 157, 121);&quot;&gt;Handler&lt;/span&gt;(&lt;span style=&quot;color: rgb(106, 171, 115);&quot;&gt;&quot;goroutine&quot;&lt;/span&gt;))&lt;br&gt;mux.&lt;span style=&quot;color: rgb(176, 157, 121);&quot;&gt;Handle&lt;/span&gt;(&lt;span style=&quot;color: rgb(106, 171, 115);&quot;&gt;&quot;/debug/pprof/threadcreate&quot;&lt;/span&gt;, &lt;span style=&quot;color: rgb(175, 191, 126);&quot;&gt;pprof&lt;/span&gt;.&lt;span style=&quot;color: rgb(176, 157, 121);&quot;&gt;Handler&lt;/span&gt;(&lt;span style=&quot;color: rgb(106, 171, 115);&quot;&gt;&quot;goroutine&quot;&lt;/span&gt;))&lt;span style=&quot;background-color: rgb(30, 31, 34);&quot;&gt;&lt;br&gt;&lt;/span&gt;&lt;/pre&gt;&lt;/div&gt;" style="text;html=1;strokeColor=none;fillColor=none;spacing=5;spacingTop=-20;whiteSpace=wrap;overflow=hidden;rounded=0;" parent="1" vertex="1">
          <mxGeometry x="50" y="745" width="560" height="220" as="geometry" />
        </mxCell>
        <mxCell id="13" value="демонстрация с генерацией pprof" style="whiteSpace=wrap;html=1;" parent="1" vertex="1">
          <mxGeometry x="650" y="825" width="120" height="60" as="geometry" />
        </mxCell>
        <mxCell id="15" value="&lt;h1&gt;/v1/sign-up&lt;/h1&gt;&lt;div style=&quot;color: rgb(248, 248, 242); background-color: rgb(33, 33, 33); font-family: IBMPlexMono, Monaco, &amp;quot;Courier New&amp;quot;, monospace, Menlo, Monaco, &amp;quot;Courier New&amp;quot;, monospace; line-height: 18px;&quot;&gt;&lt;div&gt;{&lt;/div&gt;&lt;div&gt;  &lt;span style=&quot;color: #9cdcfe;&quot;&gt;&quot;email&quot;&lt;/span&gt;&lt;span style=&quot;color: #dcdcdc;&quot;&gt;:&lt;/span&gt; &lt;span style=&quot;color: #ce9178;&quot;&gt;&quot;john.doe@example2.com&quot;&lt;/span&gt;&lt;span style=&quot;color: #dcdcdc;&quot;&gt;,&lt;/span&gt;&lt;/div&gt;&lt;div&gt;  &lt;span style=&quot;color: #9cdcfe;&quot;&gt;&quot;password&quot;&lt;/span&gt;&lt;span style=&quot;color: #dcdcdc;&quot;&gt;:&lt;/span&gt; &lt;span style=&quot;color: #ce9178;&quot;&gt;&quot;securepassword123&quot;&lt;/span&gt;&lt;span style=&quot;color: #dcdcdc;&quot;&gt;,&lt;/span&gt;&lt;/div&gt;&lt;div&gt;  &lt;span style=&quot;color: #9cdcfe;&quot;&gt;&quot;telegram_login&quot;&lt;/span&gt;&lt;span style=&quot;color: #dcdcdc;&quot;&gt;:&lt;/span&gt; &lt;span style=&quot;color: #ce9178;&quot;&gt;&quot;patelix&quot;&lt;/span&gt;&lt;span style=&quot;color: #dcdcdc;&quot;&gt;,&lt;/span&gt;&lt;/div&gt;&lt;div&gt;  &lt;span style=&quot;color: #9cdcfe;&quot;&gt;&quot;first_name&quot;&lt;/span&gt;&lt;span style=&quot;color: #dcdcdc;&quot;&gt;:&lt;/span&gt; &lt;span style=&quot;color: #ce9178;&quot;&gt;&quot;John&quot;&lt;/span&gt;&lt;span style=&quot;color: #dcdcdc;&quot;&gt;,&lt;/span&gt;&lt;/div&gt;&lt;div&gt;  &lt;span style=&quot;color: #9cdcfe;&quot;&gt;&quot;last_name&quot;&lt;/span&gt;&lt;span style=&quot;color: #dcdcdc;&quot;&gt;:&lt;/span&gt; &lt;span style=&quot;color: #ce9178;&quot;&gt;&quot;Doe&quot;&lt;/span&gt;&lt;span style=&quot;color: #dcdcdc;&quot;&gt;,&lt;/span&gt;&lt;/div&gt;&lt;div&gt;  &lt;span style=&quot;color: #9cdcfe;&quot;&gt;&quot;patronymic&quot;&lt;/span&gt;&lt;span style=&quot;color: #dcdcdc;&quot;&gt;:&lt;/span&gt; &lt;span style=&quot;color: #ce9178;&quot;&gt;&quot;Jonathan&quot;&lt;/span&gt;&lt;span style=&quot;color: #dcdcdc;&quot;&gt;,&lt;/span&gt;&lt;/div&gt;&lt;div&gt;  &lt;span style=&quot;color: #9cdcfe;&quot;&gt;&quot;date_of_birth&quot;&lt;/span&gt;&lt;span style=&quot;color: #dcdcdc;&quot;&gt;:&lt;/span&gt; &lt;span style=&quot;color: #ce9178;&quot;&gt;&quot;1990-01-01&quot;&lt;/span&gt;&lt;span style=&quot;color: #dcdcdc;&quot;&gt;,&lt;/span&gt;&lt;/div&gt;&lt;div&gt;  &lt;span style=&quot;color: #9cdcfe;&quot;&gt;&quot;phone&quot;&lt;/span&gt;&lt;span style=&quot;color: #dcdcdc;&quot;&gt;:&lt;/span&gt; &lt;span style=&quot;color: #ce9178;&quot;&gt;&quot;79000000000&quot;&lt;/span&gt;&lt;span style=&quot;color: #dcdcdc;&quot;&gt;,&lt;/span&gt;&lt;/div&gt;&lt;div&gt;  &lt;span style=&quot;color: #9cdcfe;&quot;&gt;&quot;address&quot;&lt;/span&gt;&lt;span style=&quot;color: #dcdcdc;&quot;&gt;:&lt;/span&gt; &lt;span style=&quot;color: #ce9178;&quot;&gt;&quot;Moscow, Russia, 1, 1, 1&quot;&lt;/span&gt;&lt;/div&gt;&lt;div&gt;&lt;span style=&quot;color: #dcdcdc;&quot;&gt;}&lt;/span&gt;&lt;/div&gt;&lt;/div&gt;&lt;p&gt;&lt;br&gt;&lt;/p&gt;&lt;p&gt;&lt;br&gt;&lt;/p&gt;" style="text;html=1;strokeColor=none;fillColor=none;spacing=5;spacingTop=-20;whiteSpace=wrap;overflow=hidden;rounded=0;" vertex="1" parent="1">
          <mxGeometry x="40" y="1060" width="280" height="260" as="geometry" />
        </mxCell>
        <mxCell id="16" value="" style="shape=flexArrow;endArrow=classic;html=1;rounded=0;" edge="1" parent="1">
          <mxGeometry width="50" height="50" relative="1" as="geometry">
            <mxPoint x="320" y="1210" as="sourcePoint" />
            <mxPoint x="390" y="1210" as="targetPoint" />
          </mxGeometry>
        </mxCell>
        <mxCell id="17" value="&lt;font style=&quot;font-size: 48px;&quot;&gt;API Gateway&lt;/font&gt;" style="rounded=0;whiteSpace=wrap;html=1;" vertex="1" parent="1">
          <mxGeometry x="410" y="1110" width="260" height="220" as="geometry" />
        </mxCell>
        <mxCell id="18" value="&lt;font style=&quot;font-size: 40px;&quot;&gt;Auth&lt;/font&gt;" style="rounded=0;whiteSpace=wrap;html=1;" vertex="1" parent="1">
          <mxGeometry x="890" y="950" width="340" height="130" as="geometry" />
        </mxCell>
        <mxCell id="19" value="" style="rounded=0;whiteSpace=wrap;html=1;" vertex="1" parent="1">
          <mxGeometry x="1490" y="1190" width="340" height="130" as="geometry" />
        </mxCell>
        <mxCell id="20" value="" style="rounded=0;whiteSpace=wrap;html=1;" vertex="1" parent="1">
          <mxGeometry x="890" y="1580" width="340" height="130" as="geometry" />
        </mxCell>
        <mxCell id="26" value="" style="group;movable=1;resizable=1;rotatable=1;deletable=1;editable=1;locked=0;connectable=1;" vertex="1" connectable="0" parent="1">
          <mxGeometry x="890" y="1230" width="396" height="80" as="geometry" />
        </mxCell>
        <mxCell id="21" value="" style="shape=dataStorage;whiteSpace=wrap;html=1;fixedSize=1;" vertex="1" parent="26">
          <mxGeometry width="100" height="80" as="geometry" />
        </mxCell>
        <mxCell id="22" value="" style="shape=dataStorage;whiteSpace=wrap;html=1;fixedSize=1;" vertex="1" parent="26">
          <mxGeometry x="98" width="100" height="80" as="geometry" />
        </mxCell>
        <mxCell id="24" value="" style="shape=dataStorage;whiteSpace=wrap;html=1;fixedSize=1;movable=0;resizable=0;rotatable=0;deletable=0;editable=0;locked=1;connectable=0;" vertex="1" parent="26">
          <mxGeometry x="198" width="100" height="80" as="geometry" />
        </mxCell>
        <mxCell id="25" value="" style="shape=dataStorage;whiteSpace=wrap;html=1;fixedSize=1;" vertex="1" parent="26">
          <mxGeometry x="296" width="100" height="80" as="geometry" />
        </mxCell>
      </root>
    </mxGraphModel>
  </diagram>
</mxfile>
